<?xml version="1.0" encoding="UTF-8"?>
<svg version="1.1" xmlns="http://www.w3.org/2000/svg" width="1024" height="1024">
<path d="M0 0 C1.06476563 0.54140625 2.12953125 1.0828125 3.2265625 1.640625 C23.07611472 12.30471852 40.41462091 29.00486263 55 46 C55.96582222 47.08218226 56.93339848 48.16280061 57.90234375 49.2421875 C66.24010897 58.59822721 73.80048588 68.44848437 81.20507812 78.55371094 C82.85048035 80.7962205 84.5092565 83.02805869 86.171875 85.2578125 C110.77487948 118.50564351 131.89584709 154.49685695 151.92333984 190.61962891 C153.21208472 192.94243142 154.51812821 195.25243757 155.83447266 197.56005859 C158.49806188 202.2612832 161.04927578 206.78549784 162.81640625 211.90234375 C165.03011615 217.89885525 167.13542504 221.65753927 173.11425781 224.45947266 C180.54701656 227.21223746 188.15463791 229.25513363 195.81425476 231.26966858 C202.43027122 233.03983719 208.70671677 235.42311791 215 238.125 C215.97412842 238.54313965 216.94825684 238.9612793 217.9519043 239.39208984 C226.12309964 242.96544968 234.13899939 246.78888791 242 251 C242.73444336 251.391875 243.46888672 251.78375 244.22558594 252.1875 C265.45639117 263.58181056 290.75706159 277.69965021 302 300 C302.33902344 300.62003906 302.67804687 301.24007813 303.02734375 301.87890625 C306.80599721 309.94119451 306.19115183 320.47717533 303.4375 328.75 C293.23376025 352.70044468 271.1227596 366.18521401 247.9609375 375.6875 C239.14110689 379.15683712 230.16101493 381.62500483 221 384 C221.16604736 385.69298218 221.16604736 385.69298218 221.33544922 387.42016602 C224.51803831 420.09351503 226.63139408 452.68941434 227.625 485.5 C227.64573578 486.18402893 227.66647156 486.86805786 227.68783569 487.57281494 C227.96661172 497.05177679 228.04568418 506.51799542 228 516 C244.63776593 514.6811288 259.02877101 513.4351624 272 502 C274.01369582 499.55651513 274.01369582 499.55651513 275.75 496.9375 C276.34296875 496.08027344 276.9359375 495.22304688 277.546875 494.33984375 C279.1328893 491.98777051 279.1328893 491.98777051 280 489 C279.40427579 487.01335289 279.40427579 487.01335289 278.33984375 484.9296875 C277.96085938 484.12345947 277.581875 483.31723145 277.19140625 482.48657227 C276.57072266 481.19384399 276.57072266 481.19384399 275.9375 479.875 C272.82612857 473.19466677 269.92747448 466.52306116 267.5 459.5625 C267.25757568 458.8720459 267.01515137 458.1815918 266.76538086 457.47021484 C263.55957731 448.08470346 261.69555681 436.45675126 265.625 427 C270.23140077 418.44755661 275.85506386 414.04831205 285 411 C299.39439108 409.98255173 310.27838094 413.13257732 323 420 C323.0928125 419.17628906 323.185625 418.35257812 323.28125 417.50390625 C324.14316215 413.30208451 325.6608097 409.7931045 327.5 405.9375 C327.85602295 405.19089111 328.2120459 404.44428223 328.57885742 403.67504883 C336.86500537 386.77954079 350.12827133 369.27869925 367.859375 361.7265625 C375.83861726 359.01827954 385.47773533 358.53800428 393.26171875 362.03515625 C400.93000556 366.29148623 404.30148759 372.47063357 407.3125 380.5 C408.14301006 384.72805123 408.17515073 388.70880717 408 393 C408.80824219 392.57847656 409.61648438 392.15695312 410.44921875 391.72265625 C412.05216797 390.90087891 412.05216797 390.90087891 413.6875 390.0625 C414.74324219 389.51722656 415.79898438 388.97195313 416.88671875 388.41015625 C423.57942735 385.37870355 431.32370942 384.83832655 438.46875 386.61328125 C445.42311546 389.31643358 449.76452002 393.93248465 453.3203125 400.40234375 C458.18336914 411.70980062 457.04920163 424.62367161 453 436 C454.155 436.0825 455.31 436.165 456.5 436.25 C464.4030252 437.2953737 469.55206744 440.77966428 474.52734375 446.93359375 C479.56547569 454.00301496 480.75977947 462.14427041 479.5625 470.625 C474.47485658 492.19660809 456.80398112 511.41750749 440 525 C438.90201936 525.92148862 437.80439828 526.84340575 436.70703125 527.765625 C422.78561749 539.32963267 407.33758259 548.40131707 390.640625 555.41015625 C383.3378892 558.58888516 379.70245912 562.30514934 375.203125 568.84375 C368.81446232 577.99630221 360.82334559 585.26279426 352 592 C351.4524707 592.42780762 350.90494141 592.85561523 350.34082031 593.29638672 C321.13610928 616.06491073 286.63413486 627.92871592 249.75 629.6875 C248.23998413 629.76061401 248.23998413 629.76061401 246.69946289 629.83520508 C240.99111781 630.05470258 235.53853292 629.881788 229.87207031 629.13208008 C229.25428711 629.08849365 228.63650391 629.04490723 228 629 C225.95287635 631.04712365 226.55533676 635.22245212 226.38671875 638.046875 C226.2749043 639.76224439 226.16249301 641.47757495 226.04956055 643.19287109 C225.99101898 644.09930359 225.93247742 645.00573608 225.87216187 645.93963623 C222.73509478 693.68257261 214.73797975 740.39454093 192 783 C191.38640625 784.16789063 190.7728125 785.33578125 190.140625 786.5390625 C178.31253894 808.19130269 161.40018413 827.8566028 142 843 C141.44425293 843.43747559 140.88850586 843.87495117 140.31591797 844.32568359 C121.09210568 859.35113065 100.07285123 870.86647156 75 868 C67.37044068 866.49533053 60.9085079 863.12405821 56 857 C49.37856464 846.3556577 50.91997145 831.10431764 51 819 C21.10727886 821.84086853 -2.7956951 837.5827991 -27.53613281 853.46801758 C-56.01701085 871.74817312 -90.48759525 892.90435552 -126 885.27734375 C-136.69262983 882.16286313 -147.41165075 877.02048831 -153 867 C-157.40854426 854.61408994 -153.05386123 842.53758514 -148 831 C-145.30167159 825.33674449 -142.47677453 819.73930555 -139.58300781 814.17358398 C-135.30987119 805.90996224 -131.98836787 798.29065795 -131 789 C-143.39638108 791.49636543 -155.72664431 794.13965279 -168 797.1875 C-186.19354488 801.63549502 -205.38558422 805.6809168 -222.47265625 795.53125 C-230.07964826 790.14666801 -234.58501973 783.31677701 -236.5 774.1875 C-239.12174485 753.05137144 -226.2057893 732.91364688 -215.1875 715.875 C-201.00247331 693.86703189 -189.69782298 669.67918877 -181 645 C-181.83402344 645.33773437 -182.66804687 645.67546875 -183.52734375 646.0234375 C-204.59335763 654.37262513 -224.57906817 654.42092594 -246.4375 648.75 C-247.13858887 648.56993408 -247.83967773 648.38986816 -248.56201172 648.2043457 C-256.85717822 645.94464072 -264.91485203 642.90610154 -273 640 C-271.95753219 648.53823489 -270.91243594 657.07614526 -269.86547852 665.61383057 C-269.49745461 668.61519242 -269.12998047 671.61662083 -268.76293945 674.61810303 C-266.1611898 695.94710921 -266.1611898 695.94710921 -263.35546875 717.25 C-263.23633621 718.1249411 -263.11720367 718.9998822 -262.99446106 719.90133667 C-262.46764368 723.75814554 -261.9300251 727.61287163 -261.37231445 731.46533203 C-257.68302473 757.62758451 -257.68302473 757.62758451 -265 768 C-270.07244846 773.98288793 -276.08600766 778.1236183 -284 779 C-293.04152839 779.22478938 -300.90574261 777.42651118 -307.84765625 771.39453125 C-320.79034864 757.49783205 -319.5112564 730.57865625 -321.61657715 712.69018173 C-322.05178183 709.00174112 -322.49271814 705.31398709 -322.93359375 701.6262207 C-323.02126133 700.89281999 -323.10892891 700.15941927 -323.19925308 699.40379429 C-323.37575875 697.9272514 -323.55228381 696.45071083 -323.72882843 694.97417259 C-323.99126889 692.77722113 -324.2529963 690.58018567 -324.5145874 688.38313293 C-325.52550622 679.90152169 -326.56003219 671.42325922 -327.6328125 662.94921875 C-327.75268524 662.00164703 -327.87255798 661.05407532 -327.99606323 660.07778931 C-328.43462865 656.61919988 -328.87453544 653.1608008 -329.32025146 649.703125 C-329.61176214 647.44170888 -329.89985114 645.17987869 -330.1875 642.91796875 C-330.34605469 641.68844482 -330.50460937 640.4589209 -330.66796875 639.19213867 C-330.95553704 636.42746563 -331.06816969 633.7756207 -331 631 C-332.155 631 -333.31 631 -334.5 631 C-346.89413408 629.57291516 -359.02778541 621.14720026 -367 612 C-381.93819905 592.70312893 -387.57062183 568.82921486 -384.73193359 544.72363281 C-382.94920491 533.92639914 -378.31205299 524.45108121 -373 515 C-372.14728516 513.44925781 -372.14728516 513.44925781 -371.27734375 511.8671875 C-366.15510884 503.17270839 -359.35616554 496.06237853 -350 492 C-349.01 492 -348.02 492 -347 492 C-347.1124707 491.38862183 -347.22494141 490.77724365 -347.34082031 490.14733887 C-349.0319321 480.51960903 -350.19316701 470.83520455 -351.37268066 461.13401794 C-351.75737682 457.97058902 -352.14537569 454.80757983 -352.53417969 451.64465332 C-353.49860454 443.79355684 -354.45746787 435.94178307 -355.41650391 428.09002686 C-356.22929765 421.4373674 -357.04423168 414.78497672 -357.86193848 408.13291931 C-358.24177108 405.03584683 -358.61851336 401.93840888 -358.99511719 398.84094238 C-360.40505354 387.29441544 -360.40505354 387.29441544 -362.0065918 375.7734375 C-362.13672165 374.8851123 -362.2668515 373.99678711 -362.40092468 373.08154297 C-362.89271652 370.67347402 -362.89271652 370.67347402 -365.64453125 368.65625 C-366.68996094 368.2746875 -367.73539063 367.893125 -368.8125 367.5 C-374.92090775 365.13251774 -379.33576016 362.69071583 -382.75 356.9375 C-383.15734375 356.26589844 -383.5646875 355.59429687 -383.984375 354.90234375 C-386.00720338 351.11343059 -386.05755551 348.25979193 -385.88671875 344.046875 C-385.85642578 342.86996094 -385.82613281 341.69304687 -385.79492188 340.48046875 C-385.72373835 338.00845906 -385.63282836 335.53693281 -385.52148438 333.06640625 C-385.25001502 325.41430017 -385.25001502 325.41430017 -388.72265625 318.87890625 C-390.33719086 317.31260206 -390.33719086 317.31260206 -392 316 C-392.79921875 315.31292969 -393.5984375 314.62585938 -394.421875 313.91796875 C-395.57429688 313.06138672 -395.57429688 313.06138672 -396.75 312.1875 C-412.93791735 299.49442537 -424.92992959 283.05532226 -427.78125 262.21875 C-429.3278896 239.46105305 -421.27025837 218.51102315 -407 201 C-406.32453125 200.16082031 -405.6490625 199.32164062 -404.953125 198.45703125 C-391.78238394 182.95497288 -372.02622348 170.54176176 -351.44238281 168.78125 C-331.35991049 167.63898353 -312.49482223 171.54900842 -297.04077148 185.08105469 C-294.61416772 187.31579104 -292.30316388 189.6375122 -290 192 C-289.00226563 192.98419922 -289.00226563 192.98419922 -287.984375 193.98828125 C-271.80704635 211.00362467 -266.09442593 234.56987126 -266.6484375 257.35546875 C-267.53781359 276.40667232 -275.53474389 294.82551155 -289.1875 308.125 C-292.29959002 311.2791565 -292.29959002 311.2791565 -292.93359375 315.421875 C-292.15333256 317.90783157 -292.15333256 317.90783157 -291.05859375 320.36328125 C-288.09409742 327.74717433 -288.26034849 336.57339567 -291 344 C-293.71514686 349.82226914 -296.88524722 356.30119899 -302.67504883 359.45898438 C-305.17741152 361.68928764 -305.17741152 361.68928764 -305.22323608 364.10351562 C-305.02333652 367.04844255 -304.63686037 369.92437203 -304.19921875 372.84375 C-304.04748703 374.00628296 -303.89575531 375.16881592 -303.73942566 376.36657715 C-303.38564314 379.04927815 -303.0215095 381.72863209 -302.64251709 384.40771484 C-301.93056226 389.45623753 -301.26883967 394.51098994 -300.60791016 399.56640625 C-299.57460763 407.44049161 -298.52882925 415.31280556 -297.47070312 423.18359375 C-297.26739726 424.69638916 -297.26739726 424.69638916 -297.05998421 426.23974609 C-296.36342472 431.41817631 -295.6642393 436.59624129 -294.9621582 441.77392578 C-294.27172536 446.86817822 -293.58836949 451.96333966 -292.90936852 457.05912781 C-292.65250832 458.97625119 -292.39300145 460.8930221 -292.13065529 462.80940247 C-289.52418762 481.85718924 -289.52418762 481.85718924 -290 491 C-289.03320312 490.96519531 -288.06640625 490.93039062 -287.0703125 490.89453125 C-276.47136699 490.67415714 -267.32646453 491.16447362 -258.8515625 498.1875 C-253.82011166 503.11280209 -250.52457098 508.87934252 -247.3984375 515.140625 C-246.93091064 516.0699585 -246.46338379 516.99929199 -245.98168945 517.95678711 C-245.05218943 519.82714007 -244.14355506 521.70804286 -243.25854492 523.59985352 C-240.26734219 529.66265275 -237.29936516 533.30140162 -231 536 C-224.20137458 537.96140145 -217.31611909 537.9876208 -210.8125 535.0625 C-196.47567954 526.97389765 -189.64521885 509.97851641 -185.39794922 494.85644531 C-179.88089759 473.49295406 -178.82460022 451.10153696 -177.64599609 429.15380859 C-177.28247963 422.40488787 -176.84405035 415.70797909 -176 409 C-176.62261719 409.03480469 -177.24523437 409.06960938 -177.88671875 409.10546875 C-205.78894084 409.92268864 -238.24011823 401.26400276 -259 382 C-265.11559383 375.47669991 -269.08305724 367.63074906 -269.5625 358.625 C-268.62184875 337.05070846 -247.65348502 318.50902127 -233.4375 304.1875 C-232.57552002 303.31617432 -231.71354004 302.44484863 -230.82543945 301.54711914 C-225.60831047 296.3556684 -220.20005823 291.57497469 -214.45776367 286.97192383 C-212.50651707 285.40639102 -210.59683445 283.81880966 -208.71484375 282.171875 C-202.69030093 276.91840587 -196.48206896 272.05347505 -190 267.375 C-189.23381348 266.81304932 -188.46762695 266.25109863 -187.67822266 265.67211914 C-184.28039974 263.21009126 -180.96501875 260.89702461 -177.20703125 259.01953125 C-170.00628095 255.13328051 -167.47607286 251.94838042 -165.13037109 244.23364258 C-163.98886055 239.98211213 -162.94954756 235.70789853 -161.90722656 231.43115234 C-160.33973631 225.50286708 -158.27416306 219.76229319 -156.1875 214 C-155.54880981 212.23221191 -155.54880981 212.23221191 -154.8972168 210.42871094 C-146.28146612 186.89442298 -136.42984612 163.31799337 -125 141 C-125.94617188 141.32613281 -126.89234375 141.65226563 -127.8671875 141.98828125 C-160.99306414 153.07551726 -202.04211565 154.2527087 -234 138.5234375 C-239.4077613 135.45799141 -243.46977935 132.53863525 -246 126.6875 C-246 122.38200552 -244.57513909 119.42041375 -242 116 C-236.56871428 111.15101586 -229.98893615 107.8018486 -223.67089844 104.25952148 C-212.16396486 97.76491449 -201.12398707 90.43751468 -190.69921875 82.32080078 C-188.71252445 80.77654559 -186.71550419 79.24606746 -184.71875 77.71484375 C-177.23757345 71.95789725 -169.85392504 66.12779612 -162.69384766 59.9753418 C-158.28368561 56.19828054 -153.738602 52.61485619 -149.15478516 49.05175781 C-145.40909447 46.13209323 -141.74954265 43.13281624 -138.125 40.0625 C-100.22375867 8.30196443 -49.93905114 -26.0186653 0 0 Z " fill="#2B2B2B" transform="translate(487,58)"/>
<path d="M0 0 C1.11331696 -0.00167175 2.22663391 -0.00334351 3.37368774 -0.00506592 C28.86866836 -0.00733409 54.22371164 1.42848599 79.52445984 4.59945679 C83.2512753 5.06147554 86.9368357 5.34601708 90.6875 5.5 C94.03467955 6.25325699 95.02125268 7.12268252 97.22265625 9.82421875 C99.46382242 13.54222274 101.33438844 17.30080619 103.125 21.25 C103.46273438 21.97493652 103.80046875 22.69987305 104.1484375 23.44677734 C126.15409138 71.14982308 126.24548939 126.37014031 128.19921875 177.96484375 C128.2424955 179.10632118 128.28577225 180.24779861 128.33036041 181.42386627 C129.29543584 207.57158705 129.43315701 233.70813198 129.38574219 259.87109375 C129.37422585 266.28178576 129.38121385 272.69231389 129.39262486 279.10300064 C129.44642964 314.74170012 128.75526141 349.86694125 124.125 385.25 C123.87325853 387.26166381 123.62195227 389.27338214 123.37109375 391.28515625 C122.26495421 399.96632469 121.07047192 408.53161614 118.921875 417.02734375 C118.33117782 419.41619262 117.80542542 421.7801168 117.328125 424.19140625 C113.47674953 443.34578381 107.60929539 463.16286803 97.46875 480 C96.19678553 482.12980098 95.57355517 483.82780207 95.125 486.25 C94.465 486.25 93.805 486.25 93.125 486.25 C92.795 487.9 92.465 489.55 92.125 491.25 C91.465 491.25 90.805 491.25 90.125 491.25 C89.795 492.9 89.465 494.55 89.125 496.25 C88.465 496.25 87.805 496.25 87.125 496.25 C86.8775 496.95125 86.63 497.6525 86.375 498.375 C84.95546505 501.63993039 83.15368562 504.32630602 81.125 507.25 C80.42375 508.36375 79.7225 509.4775 79 510.625 C78.38125 511.49125 77.7625 512.3575 77.125 513.25 C76.465 513.25 75.805 513.25 75.125 513.25 C74.8775 513.81203125 74.63 514.3740625 74.375 514.953125 C72.91225133 517.64092569 71.15695127 519.71405482 69.125 522 C68.073125 523.19882813 68.073125 523.19882813 67 524.421875 C65.125 526.25 65.125 526.25 63.125 526.25 C63.125 526.91 63.125 527.57 63.125 528.25 C50.34210588 542.22384699 27.49910272 555.82704087 8.6171875 558.62109375 C5.07720514 558.73212641 1.98618607 558.42450141 -0.875 556.25 C-1.78088044 553.53235869 -2.01986308 551.80964452 -2.0859375 549.00390625 C-2.37745484 530.33622618 -2.37745484 530.33622618 -10.875 514.25 C-11.535 513.92 -12.195 513.59 -12.875 513.25 C-12.875 512.59 -12.875 511.93 -12.875 511.25 C-32.80603639 504.61520313 -54.82858764 511.27766211 -72.96191406 520.25683594 C-78.78506799 523.27988216 -84.34628388 526.72420199 -89.875 530.25 C-90.43864258 530.60819824 -91.00228516 530.96639648 -91.58300781 531.33544922 C-96.37585476 534.38861848 -101.16019684 537.45669953 -105.90185547 540.58886719 C-132.53681478 558.17418147 -166.50222638 579.82725069 -199.93359375 574.7890625 C-204.03226963 573.77777818 -206.23899841 573.20400238 -208.625 569.625 C-209.34846281 559.85825213 -204.59204869 552.50960955 -199.875 544.25 C-195.90155795 537.29217615 -192.34471908 530.36352139 -189.5 522.875 C-189.24919678 522.22104248 -188.99839355 521.56708496 -188.73999023 520.89331055 C-185.34565191 511.61119623 -183.71474056 499.64246949 -187.5 490.25 C-190.11389755 485.23389379 -193.3485243 482.23816387 -198.69140625 480.1484375 C-210.60448476 476.78646442 -222.50445736 480.50622126 -234.07568359 483.52685547 C-238.78624315 484.74372948 -243.51794066 485.87024961 -248.25 487 C-249.11117432 487.21035889 -249.97234863 487.42071777 -250.85961914 487.63745117 C-258.55216787 489.49176268 -266.02953959 490.47989981 -273.9375 490.625 C-274.71416016 490.66238281 -275.49082031 490.69976563 -276.29101562 490.73828125 C-280.4235528 490.80126658 -283.07456352 490.53516289 -286.37109375 487.9140625 C-289.75094049 484.31803211 -290.21792819 481.50375154 -290.1640625 476.62890625 C-289.59128367 471.91509131 -287.67994043 467.61032204 -285.875 463.25 C-285.56691406 462.50492188 -285.25882812 461.75984375 -284.94140625 460.9921875 C-284.26955651 459.40417902 -283.57529779 457.82567002 -282.875 456.25 C-282.215 456.25 -281.555 456.25 -280.875 456.25 C-280.50761719 454.99316406 -280.50761719 454.99316406 -280.1328125 453.7109375 C-278.713539 449.80573153 -276.85642234 446.44028729 -274.75 442.875 C-274.37746094 442.23433594 -274.00492187 441.59367187 -273.62109375 440.93359375 C-272.71065998 439.36951523 -271.79351809 437.80934466 -270.875 436.25 C-270.215 436.25 -269.555 436.25 -268.875 436.25 C-268.58753906 435.51265625 -268.30007813 434.7753125 -268.00390625 434.015625 C-265.65442224 428.25979566 -262.70826993 422.77960093 -259.7578125 417.3125 C-255.53731846 409.47970931 -251.61409669 401.69070778 -248.21484375 393.4609375 C-246.95039569 390.43068589 -245.58877591 387.46887536 -244.1875 384.5 C-242.2536816 380.29146573 -240.78544418 376.09816946 -239.55078125 371.63671875 C-238.74976556 368.80769801 -237.81318427 366.03644242 -236.875 363.25 C-234.62448219 356.32262486 -232.61519189 349.49707052 -231.30859375 342.328125 C-230.78704647 339.82845695 -229.85518483 337.60244359 -228.875 335.25 C-227.57140935 329.51420115 -226.36233581 322.89716233 -229.375 317.625 C-233.02419971 315.61794016 -235.93003452 316.30223622 -239.875 317.25 C-240.865 317.58 -241.855 317.91 -242.875 318.25 C-242.875 318.91 -242.875 319.57 -242.875 320.25 C-245.04415883 322.08193666 -247.20731194 323.77171665 -249.5 325.4375 C-250.17571045 325.92927734 -250.8514209 326.42105469 -251.54760742 326.92773438 C-264.69814054 336.27350852 -277.95305406 341.84497388 -294.1875 341.75 C-295.88676636 341.74250732 -295.88676636 341.74250732 -297.62036133 341.73486328 C-318.12081521 341.31792439 -338.05171982 334.98998689 -354.875 323.25 C-355.865 322.59 -356.855 321.93 -357.875 321.25 C-356.81727992 317.72426641 -355.54586013 314.54600453 -353.8125 311.3125 C-345.93691904 295.76627885 -352.96137518 274.20981754 -356.875 258.25 C-361.60831875 257.39800262 -365.17611578 257.42078514 -369.875 258.25 C-373.21519599 258.43585325 -376.54525245 258.60333652 -379.875 258.25 C-381.875 256.25 -381.875 256.25 -381.95703125 253.1953125 C-380.46437692 232.03855975 -380.46437692 232.03855975 -375.4375 226.625 C-374.591875 226.17125 -373.74625 225.7175 -372.875 225.25 C-372.27558594 224.89550781 -371.67617188 224.54101562 -371.05859375 224.17578125 C-368.36397779 223.03334121 -366.29352952 223.01840134 -363.375 223.0625 C-361.96734375 223.07216797 -361.96734375 223.07216797 -360.53125 223.08203125 C-358.16879415 223.23142184 -356.13783335 223.58289111 -353.875 224.25 C-353.875 224.91 -353.875 225.57 -353.875 226.25 C-353.00875 226.5903125 -353.00875 226.5903125 -352.125 226.9375 C-346.81421974 230.03545515 -344.52995139 235.66024646 -342 241 C-334.88888089 255.50865829 -328.90969027 262.87837495 -313.2421875 268.26953125 C-302.97245731 271.25990512 -290.11275536 272.29682816 -280.25 267.58203125 C-273.01553238 263.52454201 -266.91476084 259.91549014 -261.875 253.25 C-261.215 253.25 -260.555 253.25 -259.875 253.25 C-259.60816406 252.69570313 -259.34132813 252.14140625 -259.06640625 251.5703125 C-257.75434129 249.01501222 -256.30373315 246.57985555 -254.8125 244.125 C-252.74861481 240.73988716 -252.74861481 240.73988716 -250.875 237.25 C-250.215 237.25 -249.555 237.25 -248.875 237.25 C-248.648125 236.1775 -248.42125 235.105 -248.1875 234 C-247.31550549 230.46289549 -246.06087079 227.3171479 -244.5625 224 C-232.20503972 194.52382269 -232.59969262 160.06131298 -230.94873047 128.65185547 C-226.70939317 48.37839313 -226.70939317 48.37839313 -211.875 31.25 C-209.76318359 30.28027344 -209.76318359 30.28027344 -207.2734375 29.609375 C-206.32629883 29.34769531 -205.37916016 29.08601563 -204.40332031 28.81640625 C-202.84242676 28.41228516 -202.84242676 28.41228516 -201.25 28 C-199.59629395 27.55720703 -199.59629395 27.55720703 -197.90917969 27.10546875 C-194.23616416 26.13305035 -190.55667302 25.18907698 -186.875 24.25 C-185.61655273 23.92451172 -184.35810547 23.59902344 -183.06152344 23.26367188 C-161.18158579 17.62143173 -139.13406581 13.11723029 -116.875 9.25 C-115.10261963 8.9408667 -115.10261963 8.9408667 -113.29443359 8.62548828 C-98.47837371 6.10215219 -83.57670896 4.51662556 -68.625 3.0625 C-67.33222641 2.93507919 -67.33222641 2.93507919 -66.01333618 2.80508423 C-44.03938789 0.6637854 -22.07078577 0.01779151 0 0 Z " fill="#B9B9B9" transform="translate(563.875,346.75)"/>
<path d="M0 0 C0.8971875 0.62390625 1.794375 1.2478125 2.71875 1.890625 C3.70875 2.220625 4.69875 2.550625 5.71875 2.890625 C5.71875 3.550625 5.71875 4.210625 5.71875 4.890625 C6.523125 5.014375 6.523125 5.014375 7.34375 5.140625 C12.42740164 6.74598867 16.07774444 10.14253104 19.71875 13.890625 C20.89860183 14.94094655 22.08722252 15.98144704 23.28125 17.015625 C38.36606751 30.15855369 38.36606751 30.15855369 43.8828125 36.73828125 C47.05661777 40.45906148 50.43852324 43.99762528 53.77734375 47.5703125 C55.71875 49.890625 55.71875 49.890625 55.71875 51.890625 C56.37875 51.890625 57.03875 51.890625 57.71875 51.890625 C59.2265625 53.5703125 59.2265625 53.5703125 60.84375 55.765625 C61.38257813 56.48492187 61.92140625 57.20421875 62.4765625 57.9453125 C63.71875 59.890625 63.71875 59.890625 63.71875 61.890625 C64.37875 61.890625 65.03875 61.890625 65.71875 61.890625 C67.1619674 63.60631706 68.5226185 65.39174783 69.84375 67.203125 C70.24698486 67.75291016 70.65021973 68.30269531 71.06567383 68.86914062 C71.89670793 70.00395678 72.72490295 71.14085729 73.55029297 72.27978516 C74.55860172 73.6698439 75.57717643 75.05244539 76.59765625 76.43359375 C86.36630951 89.70461513 95.88789489 103.19647646 104.63574219 117.16455078 C105.78333788 118.99356375 106.94199541 120.81527488 108.1015625 122.63671875 C114.06681364 132.04617826 119.70222721 141.62709901 125.23193359 151.29785156 C126.83999762 154.10206174 128.46044637 156.89890119 130.08203125 159.6953125 C131.19032549 161.61445554 132.29840319 163.53372364 133.40625 165.453125 C133.93589355 166.36408936 134.46553711 167.27505371 135.01123047 168.21362305 C135.73850342 169.47879761 135.73850342 169.47879761 136.48046875 170.76953125 C136.91319092 171.5179126 137.34591309 172.26629395 137.79174805 173.03735352 C138.71875 174.890625 138.71875 174.890625 138.71875 176.890625 C137.87505859 176.80498291 137.03136719 176.71934082 136.16210938 176.63110352 C94.42285687 172.43849412 52.55764762 171.13919209 10.71875 174.890625 C9.00872803 175.04337891 9.00872803 175.04337891 7.26416016 175.19921875 C-34.43147176 179.07843906 -75.70413463 187.69868526 -115.04492188 202.1340332 C-116.07939453 202.5074585 -117.11386719 202.88088379 -118.1796875 203.265625 C-119.55133057 203.77222656 -119.55133057 203.77222656 -120.95068359 204.2890625 C-123.28125 204.890625 -123.28125 204.890625 -126.28125 203.890625 C-126.05050781 203.33117187 -125.81976563 202.77171875 -125.58203125 202.1953125 C-123.54038263 197.1759234 -121.63898896 192.12864735 -119.84375 187.015625 C-116.1982932 176.72584938 -111.84130056 166.8019021 -107.28125 156.890625 C-106.51007 155.18244813 -105.73924389 153.47411146 -104.96875 151.765625 C-103.45150239 148.41903771 -101.90533046 145.08817134 -100.328125 141.76953125 C-97.04123356 134.85080874 -93.82480672 127.9761412 -91.078125 120.8203125 C-90.05847486 118.3511597 -88.66276399 116.17312637 -87.28125 113.890625 C-86.53781347 111.98354869 -85.79761301 110.07472259 -85.10546875 108.1484375 C-83.86933031 104.76223835 -82.50154496 101.43065557 -81.1484375 98.08984375 C-78.99415282 92.62650017 -78.67792334 87.72278273 -79.28125 81.890625 C-80.93227559 79.00133021 -82.02266181 78.31640271 -85.1171875 77.26953125 C-89.12044565 76.40292556 -90.81599719 76.61147332 -94.40625 78.765625 C-96.77948244 81.03155704 -98.26279247 83.50462675 -99.90625 86.328125 C-107.41529822 97.86874873 -126.14305992 100.70020141 -138.76269531 103.42675781 C-143.58209262 104.38587149 -148.41731044 105.18856103 -153.28125 105.890625 C-154.52648437 106.07625 -155.77171875 106.261875 -157.0546875 106.453125 C-162.22468123 107.07798665 -167.39198823 107.08147018 -172.59375 107.078125 C-173.63595703 107.07876953 -174.67816406 107.07941406 -175.75195312 107.08007812 C-185.35218667 107.01572555 -194.77115432 106.14667537 -204.28125 104.890625 C-204.28125 104.230625 -204.28125 103.570625 -204.28125 102.890625 C-202.28834748 101.46580718 -200.30347992 100.16912709 -198.21875 98.890625 C-196.92770541 98.07920596 -195.63736391 97.26666735 -194.34765625 96.453125 C-193.34049561 95.82083984 -193.34049561 95.82083984 -192.31298828 95.17578125 C-182.30836344 88.84745331 -172.66349819 82.11248709 -163.28125 74.890625 C-162.18775936 74.05564981 -161.09400207 73.22102373 -160 72.38671875 C-151.60157623 65.96893961 -143.33572024 59.39763189 -135.15625 52.703125 C-134.25519531 51.96707031 -133.35414063 51.23101562 -132.42578125 50.47265625 C-129.99545007 48.48318699 -127.5810041 46.47524565 -125.16796875 44.46484375 C-123.72667647 43.27329963 -122.28527058 42.08189291 -120.84375 40.890625 C-119.81386963 40.02594604 -119.81386963 40.02594604 -118.76318359 39.14379883 C-118.11043457 38.60650146 -117.45768555 38.0692041 -116.78515625 37.515625 C-116.20580322 37.03351563 -115.6264502 36.55140625 -115.02954102 36.0546875 C-113.12307974 34.78531068 -111.51865717 34.31264999 -109.28125 33.890625 C-109.28125 33.230625 -109.28125 32.570625 -109.28125 31.890625 C-107.82617188 30.60058594 -107.82617188 30.60058594 -105.75 29.125 C-104.97116455 28.57142822 -104.1923291 28.01785645 -103.38989258 27.44750977 C-102.52904053 26.85123779 -101.66818848 26.25496582 -100.78125 25.640625 C-99.89139404 25.0230835 -99.00153809 24.40554199 -98.0847168 23.76928711 C-82.50647595 13.12197781 -66.24671009 2.94726594 -48.28125 -3.109375 C-47.31783691 -3.43736084 -47.31783691 -3.43736084 -46.33496094 -3.77197266 C-30.7991272 -8.89182508 -14.1413262 -9.09085256 0 0 Z " fill="#717171" transform="translate(477.28125,78.109375)"/>
<path d="M0 0 C2.93886618 2.18061779 3.89739136 3.33478298 4.4609375 6.98828125 C4.30608897 12.97810412 4.13767236 18.33516826 2 24 C1.75507812 24.69738281 1.51015625 25.39476562 1.2578125 26.11328125 C-1.02274293 32.27885367 -4.02058023 37.98663569 -7.18212891 43.734375 C-10.94016376 50.58758169 -12.63366765 54.33432874 -11 62 C-10.01 62.66 -9.02 63.32 -8 64 C-8 64.66 -8 65.32 -8 66 C-2.93092221 66.35572476 0.84178696 66.3810966 5.28125 63.515625 C11.18129083 58.31286172 14.93326101 50.61200095 18.73828125 43.8359375 C19.15464844 43.23007812 19.57101562 42.62421875 20 42 C20.66 42 21.32 42 22 42 C22.07347656 41.43152344 22.14695312 40.86304688 22.22265625 40.27734375 C24.41495149 33.85468985 32.46749436 29.00696628 38.1875 25.875 C42.60741189 23.82913241 45.3447466 23.68438491 50 25 C52.69757282 30.85003048 52.36834014 35.77832845 51 42 C49.12610643 46.89194331 46.54827023 51.4331231 44 56 C43.32471749 57.3289905 42.65349866 58.66016355 42 60 C41.34 60 40.68 60 40 60 C39.62875 60.804375 39.62875 60.804375 39.25 61.625 C35.81779532 68.1461889 31.57850362 72.33788301 26 77 C23.17721944 79.38850662 22.17314624 80.48056129 21 84 C20.7 87.06875 20.7 87.06875 22.6875 89.25 C27.22809337 92.68612471 30.17083512 93.68006924 36 93 C41.48289802 90.58234418 45.54785608 86.72571046 49.5546875 82.35546875 C51 81 51 81 53 81 C53.33 80.01 53.66 79.02 54 78 C57.90467328 74.46388006 61.71737288 72.67078283 67 72.6875 C68.33506492 72.7664312 69.66980117 72.86143762 71 73 C71 73.66 71 74.32 71 75 C71.99 75 72.98 75 74 75 C76.36661433 78.54992149 76.75511657 80.90184309 76 85 C74.54167667 88.77538061 72.82753392 92.39062051 71 96 C70.34 96 69.68 96 69 96 C68.690625 96.78375 68.38125 97.5675 68.0625 98.375 C67 101 67 101 66 103 C65.34 103 64.68 103 64 103 C63.77699219 103.54011719 63.55398438 104.08023438 63.32421875 104.63671875 C61.57467219 107.75906586 59.2480564 110.2218646 56.8125 112.8125 C56.31492187 113.34584961 55.81734375 113.87919922 55.3046875 114.42871094 C54.31585224 115.48496678 53.32454423 116.5389141 52.33056641 117.59033203 C51.24694577 118.73837341 50.17451581 119.89696942 49.10546875 121.05859375 C36.37868955 134.46661174 17.60752175 145.11150402 0.515625 151.77734375 C-0.24516357 152.07624512 -1.00595215 152.37514648 -1.78979492 152.68310547 C-3.26249644 153.25294872 -4.74165871 153.80647335 -6.2277832 154.34033203 C-11.36487092 156.30933563 -13.67113274 158.6449865 -17 163 C-17.66 163 -18.32 163 -19 163 C-19 163.99 -19 164.98 -19 166 C-19.66 166 -20.32 166 -21 166 C-21.29970703 167.28197266 -21.29970703 167.28197266 -21.60546875 168.58984375 C-23.3871575 172.9467465 -25.93075635 175.37592913 -29.3125 178.5625 C-29.88162109 179.11357422 -30.45074219 179.66464844 -31.03710938 180.23242188 C-32.16288242 181.32200474 -33.29352935 182.40657633 -34.42919922 183.48583984 C-35.80785966 184.81478794 -37.1405131 186.19112223 -38.46484375 187.57421875 C-55.22920168 203.615307 -78.59148858 213.3933183 -100.8125 218.8125 C-101.65973633 219.0197168 -102.50697266 219.22693359 -103.37988281 219.44042969 C-113.3858099 221.74470727 -123.32552606 222.1662504 -133.5625 222.125 C-135.00786133 222.13080078 -135.00786133 222.13080078 -136.48242188 222.13671875 C-137.43826172 222.13542969 -138.39410156 222.13414062 -139.37890625 222.1328125 C-140.2201001 222.13168457 -141.06129395 222.13055664 -141.92797852 222.12939453 C-146.29767718 221.94534142 -150.64813208 221.43518679 -155 221 C-155 198.23 -155 175.46 -155 152 C-147.41 151.67 -139.82 151.34 -132 151 C-117.23525598 148.53920933 -104.13487126 143.2783427 -93 133 C-92.67 132.34 -92.34 131.68 -92 131 C-91.34 131 -90.68 131 -90 131 C-89.773125 130.319375 -89.54625 129.63875 -89.3125 128.9375 C-88 126 -88 126 -85.56640625 122.85546875 C-82.70742109 118.91005887 -81.61763568 115.09627558 -80.625 110.375 C-80.36009766 109.26898437 -80.36009766 109.26898437 -80.08984375 108.140625 C-78.44511485 100.79855517 -79.99617001 96.61738301 -83.6875 90.125 C-89.05846355 80.40021808 -95.08465526 69.24344228 -95.25 58 C-95.27578125 56.948125 -95.3015625 55.89625 -95.328125 54.8125 C-95 52 -95 52 -93.765625 50.15234375 C-90.18133336 47.81303837 -86.09453069 48.48535595 -82 49 C-78.16552312 50.01043648 -74.61892859 51.38969058 -71 53 C-69.845 53.474375 -68.69 53.94875 -67.5 54.4375 C-63.94349258 58.08292011 -63.5785415 61.87563734 -62.73828125 66.80859375 C-61.9762856 70.10251143 -60.9604173 72.26327711 -59 75 C-55.94555351 76.86660619 -54.03720746 77 -50.4375 77 C-46.82696537 75.94966265 -45.83233737 75.15321095 -43.89477539 72.02441406 C-41.99268703 67.72097158 -41.62773676 63.00117795 -41 58.375 C-37.81178763 37.53043022 -30.5607496 16.51900014 -13.11328125 3.41015625 C-8.59234662 0.39341429 -5.5502377 -0.59466833 0 0 Z " fill="#B9B9B9" transform="translate(869,442)"/>
<path d="M0 0 C2.06831432 0.00502566 4.13660947 0.0064964 6.20492935 0.00745392 C31.74062934 0.03263338 57.02833113 0.84853919 82.22528458 5.31745148 C84.17434708 5.62682648 84.17434708 5.62682648 86.16278458 5.94245148 C90.65204843 7.95803933 92.02613277 11.05704847 94.22528458 15.31745148 C99.03827562 24.3105326 102.5962707 28.57794819 112.22528458 32.31745148 C115.54917173 33.31448674 118.90463727 34.11117202 122.28778458 34.87995148 C128.47195863 36.30706857 134.32933171 37.96552259 140.22528458 40.31745148 C141.30551895 40.71706085 142.38575333 41.11667023 143.49872208 41.52838898 C149.53035514 43.7921505 155.31871758 46.24653765 161.04169083 49.20417023 C163.36887962 50.39066183 165.74301834 51.42475874 168.15497208 52.42682648 C173.22843382 54.60937229 178.21692659 56.99025957 183.22528458 59.31745148 C183.22528458 59.97745148 183.22528458 60.63745148 183.22528458 61.31745148 C184.04319473 61.47407257 184.04319473 61.47407257 184.87762833 61.63385773 C187.77169598 62.47655629 190.15497015 63.78988876 192.78778458 65.25495148 C193.73782364 65.77959991 194.6878627 66.30424835 195.66669083 66.84479523 C197.56017619 67.93463337 199.40748147 69.10558274 201.22528458 70.31745148 C201.22528458 70.97745148 201.22528458 71.63745148 201.22528458 72.31745148 C201.95747208 72.57913116 202.68965958 72.84081085 203.44403458 73.11042023 C209.96088927 75.93866194 215.39985709 81.18070609 220.22528458 86.31745148 C210.33654285 84.54911178 200.68316622 81.88290126 191.03387833 79.12213898 C181.82940287 76.4994142 172.59902554 74.19416146 163.25384903 72.12458038 C157.91754151 70.94122097 152.63288306 69.65779921 147.35028458 68.25495148 C131.09797217 64.17959822 114.47049991 62.11744022 97.85028458 60.19245148 C96.82274567 60.07184357 96.82274567 60.07184357 95.77444839 59.94879913 C90.59676909 59.34677046 85.41432633 58.81175833 80.22528458 58.31745148 C78.82602737 58.18394287 78.82602737 58.18394287 77.39850235 58.04773712 C59.66720957 56.40648339 42.0271032 55.91537522 24.22528458 55.94245148 C23.21200781 55.94281025 23.21200781 55.94281025 22.1782608 55.94317627 C-46.16772818 55.97359176 -115.64735039 64.78717782 -181.21319199 84.54938507 C-183.91409267 85.3592434 -186.62120526 86.145646 -189.32940292 86.93073273 C-216.31528731 94.83757154 -241.92559444 105.72670826 -267.33721542 117.69245148 C-268.17534775 118.08489044 -269.01348007 118.47732941 -269.87701035 118.88166046 C-275.07915091 121.365594 -279.95532345 124.15669491 -284.77471542 127.31745148 C-287.64971542 129.19245148 -287.64971542 129.19245148 -289.77471542 130.31745148 C-290.43471542 129.98745148 -291.09471542 129.65745148 -291.77471542 129.31745148 C-291.13405136 128.61620148 -290.4933873 127.91495148 -289.83330917 127.19245148 C-288.96834824 126.24370148 -288.1033873 125.29495148 -287.21221542 124.31745148 C-286.36530136 123.38932648 -285.5183873 122.46120148 -284.64580917 121.50495148 C-282.54543625 119.19147584 -280.49577042 116.83932215 -278.45440292 114.47370148 C-274.6235073 110.0853852 -270.5782758 105.93732655 -266.46221542 101.81745148 C-265.74743027 101.09042023 -265.03264511 100.36338898 -264.2961998 99.61432648 C-263.61235214 98.92854523 -262.92850449 98.24276398 -262.22393417 97.53620148 C-261.60864853 96.91680695 -260.99336288 96.29741241 -260.35943222 95.65924835 C-258.77471542 94.31745148 -258.77471542 94.31745148 -256.77471542 94.31745148 C-256.27971542 92.83245148 -256.27971542 92.83245148 -255.77471542 91.31745148 C-253.68457261 89.52169498 -251.59688554 87.84685546 -249.39971542 86.19245148 C-248.10574828 85.20287018 -246.81278902 84.2119697 -245.52080917 83.21979523 C-244.87998398 82.72850128 -244.23915878 82.23720734 -243.57891464 81.7310257 C-241.1375225 79.81821642 -238.80828888 77.78291327 -236.46221542 75.75495148 C-231.96004614 72.01981845 -227.21615661 69.1347829 -222.14971542 66.25495148 C-210.51145598 59.7765524 -210.51145598 59.7765524 -202.77471542 49.31745148 C-202.11471542 49.31745148 -201.45471542 49.31745148 -200.77471542 49.31745148 C-200.69221542 48.63682648 -200.60971542 47.95620148 -200.52471542 47.25495148 C-199.53810196 43.39071542 -198.45438751 40.28320223 -195.77471542 37.31745148 C-192.02478471 35.15761248 -188.05258655 33.82420801 -183.96221542 32.44245148 C-182.77096054 32.0224588 -181.57970566 31.60246613 -180.35235214 31.1697464 C-143.99455171 18.58871082 -106.28631382 9.54179607 -68.21221542 4.12995148 C-67.13907089 3.97502228 -66.06592636 3.82009308 -64.9602623 3.66046906 C-43.36090968 0.73781063 -21.77828895 -0.05797285 0 0 Z " fill="#717171" transform="translate(540.774715423584,270.6825485229492)"/>
<path d="M0 0 C0 0.66 0 1.32 0 2 C0.886875 2.268125 1.77375 2.53625 2.6875 2.8125 C9.71289066 5.33103627 13.38008073 9.32497722 18 15 C18.52980469 15.63164062 19.05960937 16.26328125 19.60546875 16.9140625 C29.72695084 29.55941031 33.45029598 46.00754707 32 62 C29.89713024 74.92198231 25.89116412 85.59343748 18 96 C16.53885751 97.9785765 15.08445431 99.96198329 13.63110352 101.94628906 C12.63868485 103.29954337 11.64314935 104.65051825 10.64428711 105.99902344 C6.74879659 111.26983682 5.31970321 114.40112115 6 121 C6.45398618 122.49393125 6.95570099 123.97405454 7.5 125.4375 C9.5646457 131.10304436 9.87967723 136.30598848 8 142.0625 C7.67 142.701875 7.34 143.34125 7 144 C6.34 144 5.68 144 5 144 C4.63261719 144.90878906 4.63261719 144.90878906 4.2578125 145.8359375 C1.48472063 150.60703345 -4.59237764 152.48140229 -9.5625 154.3125 C-19.73079095 156.41136567 -30.84585245 156.16866834 -40 151 C-41 150 -41 150 -41.06591797 148.11743164 C-41.04158691 147.30653076 -41.01725586 146.49562988 -40.9921875 145.66015625 C-40.97542969 144.76103516 -40.95867187 143.86191406 -40.94140625 142.93554688 C-40.89794294 141.05511953 -40.84618462 139.17486113 -40.78515625 137.29492188 C-40.62022151 126.70161344 -43.14054158 119.04212367 -50 111 C-50.44085938 110.42765625 -50.88171875 109.8553125 -51.3359375 109.265625 C-55.08766132 104.53801926 -59.58395278 100.92977328 -64.31640625 97.2109375 C-67.06714652 94.94467987 -69.58861214 92.62505514 -72 90 C-72 89.34 -72 88.68 -72 88 C-72.66 88 -73.32 88 -74 88 C-75.40234375 86.09375 -75.40234375 86.09375 -76.9375 83.5 C-77.44152344 82.6646875 -77.94554688 81.829375 -78.46484375 80.96875 C-81.8891473 74.34668716 -83.51891931 68.79142563 -83.375 61.3125 C-83.35651001 60.13131592 -83.35651001 60.13131592 -83.33764648 58.92626953 C-82.92190196 44.28431353 -77.77140875 30.16326639 -68 19 C-67.34 19 -66.68 19 -66 19 C-65.67 18.01 -65.34 17.02 -65 16 C-46.21518293 -1.89841917 -24.7076463 -8.41111363 0 0 Z " fill="#717171" transform="translate(166,253)"/>
<path d="M0 0 C-0.56641553 2.40875657 -1.23325772 4.74567528 -1.97265625 7.109375 C-5.88093031 20.1649715 -7.3759437 32.42735601 -1 45 C-0.67 45.99 -0.34 46.98 0 48 C1.85383351 49.12248 1.85383351 49.12248 4 50 C4.86818359 50.47759766 4.86818359 50.47759766 5.75390625 50.96484375 C9.74703322 53.11233536 13.36920832 54.36036607 17.8125 55.3125 C22.69609553 56.61794867 22.69609553 56.61794867 25.1875 59.75 C27.37827033 67.68732943 27.58521354 77.17416589 23.625 84.5 C20.01663907 89.63892161 15.34245792 92.83149118 10 96 C9.030625 96.639375 8.06125 97.27875 7.0625 97.9375 C1.16501194 99.98356729 -4.70513984 99.71219798 -10.625 97.875 C-25.03268376 89.87073124 -32.93334611 79.97370555 -37.8828125 64.18359375 C-41.80055325 46.1123248 -38.5343655 27.7793749 -29 12 C-26.9375 9.1640625 -26.9375 9.1640625 -25 7 C-24.34 7 -23.68 7 -23 7 C-22.67 6.01 -22.34 5.02 -22 4 C-14.95006453 -0.83819101 -8.33817972 -0.42159336 0 0 Z " fill="#B8B8B8" transform="translate(164,569)"/>
<path d="M0 0 C1.29381592 0.16508057 1.29381592 0.16508057 2.61376953 0.33349609 C14.28189276 1.99112327 14.28189276 1.99112327 18.75 4.5625 C19.49707031 6.66577148 19.49707031 6.66577148 19.75 8.5625 C-8.70052953 21.68838833 -47.40750204 18.02158655 -78.13464355 18.52606201 C-79.94173585 18.55719001 -81.7487181 18.59459958 -83.55566406 18.63330078 C-162.19625162 20.30501031 -162.19625162 20.30501031 -189.25 9.5625 C-189.91 8.5725 -190.57 7.5825 -191.25 6.5625 C-158.95600272 -22.71899753 -39.10504386 -5.10822607 0 0 Z " fill="#2B2B2B" transform="translate(586.25,981.4375)"/>
<path d="M0 0 C6.71385391 4.58269281 10.50729877 11.83849116 12.46484375 19.58984375 C14.28929066 31.35496869 13.00228559 40.60739809 7.8828125 51.28515625 C7.2228125 51.28515625 6.5628125 51.28515625 5.8828125 51.28515625 C5.6765625 51.84203125 5.4703125 52.39890625 5.2578125 52.97265625 C2.0643209 58.34352848 -3.24197705 61.55148759 -9.1171875 63.28515625 C-16.09940421 63.74074854 -21.50730235 62.35041453 -27.11328125 58.1484375 C-33.7708854 51.95803365 -37.63700281 43.96734171 -38.3984375 34.95703125 C-38.74025422 21.7970875 -35.60957939 12.39867908 -26.609375 2.65234375 C-18.48303563 -4.763496 -9.3788094 -5.13076044 0 0 Z " fill="#2C2C2C" transform="translate(461.1171875,409.71484375)"/>
<path d="M0 0 C6.49070344 4.85401484 9.62191581 10.88282084 11.26171875 18.69140625 C12.64554101 30.46796386 12.43184352 41.77029484 5.26171875 51.69140625 C0.07086279 56.99154339 -5.83345107 60.91556805 -13.42578125 61.12890625 C-20.71202631 60.96578136 -26.30696043 57.91130787 -31.61328125 53.06640625 C-38.67332632 41.85339349 -39.65796094 29.13881868 -37.04296875 16.26953125 C-34.21247589 7.6591244 -29.3235662 2.27926982 -21.66796875 -2.36328125 C-13.66883288 -6.28188627 -7.12373363 -4.70188238 0 0 Z " fill="#2C2C2C" transform="translate(616.73828125,411.30859375)"/>
<path d="M0 0 C1.09054687 0.24234375 2.18109375 0.4846875 3.3046875 0.734375 C4.02503174 0.89437988 4.74537598 1.05438477 5.48754883 1.21923828 C7.0942793 1.57643555 8.70088528 1.93419322 10.30737305 2.29248047 C14.54464464 3.23666184 18.78349758 4.17172461 23.02734375 5.0859375 C23.82994629 5.2602832 24.63254883 5.43462891 25.45947266 5.61425781 C26.99615825 5.94780692 28.53356963 6.27803444 30.07177734 6.60449219 C33.90305335 7.44031138 37.3773873 8.52831359 41 10 C44.3792716 11.03757173 47.78338066 11.98511425 51.1875 12.9375 C56.60489661 14.4624835 62.02060697 15.99121736 67.41796875 17.5859375 C68.20067139 17.81716309 68.98337402 18.04838867 69.78979492 18.28662109 C72.96894263 19.31274167 75.96240957 20.61327393 79 22 C77.58793323 26.42659135 75.43885555 28.90947845 72.125 32.125 C71.26132812 32.97320312 70.39765625 33.82140625 69.5078125 34.6953125 C63.73559322 40 63.73559322 40 61 40 C61 40.66 61 41.32 61 42 C46.90001329 50.031638 32.90652481 55.6907917 17 59 C15.09374743 53.73397729 14.29213045 48.65195317 13.5625 43.12109375 C13.02331971 40.129392 12.15212126 37.79919713 11 35 C10.17036007 32.18254279 9.43731161 29.33959757 8.6875 26.5 C6.84598949 19.67141239 4.69079582 13.15403787 2.015625 6.6015625 C1.15630195 4.40037346 0.50227915 2.30393262 0 0 Z " fill="#4A4A4A" transform="translate(688,361)"/>
<path d="M0 0 C1.27221008 3.81663023 0.49454171 5.36893402 -0.6875 9.1875 C-1.24824219 11.08628906 -1.24824219 11.08628906 -1.8203125 13.0234375 C-2.11470215 14.0148877 -2.11470215 14.0148877 -2.41503906 15.02636719 C-6.62094179 29.21690042 -8.47331038 43.29593871 -10 58 C-26.5971202 57.17123447 -42.18314716 55.2709041 -58 50 C-58.99515625 49.66871094 -59.9903125 49.33742188 -61.015625 48.99609375 C-66.54282392 46.9700193 -71.88461562 44.31080766 -76 40 C-76 39.01 -76 38.02 -76 37 C-75.35417969 36.68289063 -74.70835937 36.36578125 -74.04296875 36.0390625 C-62.74593979 30.44463776 -51.61919078 24.52518512 -40.4921875 18.6015625 C-33.79223142 15.03637922 -27.08467759 11.48902377 -20.3125 8.0625 C-19.23613281 7.51722656 -18.15976562 6.97195313 -17.05078125 6.41015625 C-12.53337652 4.32208569 -9.00747983 3 -4 3 C-4 2.34 -4 1.68 -4 1 C-2.68 0.67 -1.36 0.34 0 0 Z " fill="#4A4A4A" transform="translate(324,387)"/>
<path d="M0 0 C2.203125 1.23828125 2.203125 1.23828125 4 3 C5.01301183 8.06505914 4.43936482 13.42619096 2 18 C1.34 18 0.68 18 0 18 C-0.23074219 18.74378906 -0.46148438 19.48757813 -0.69921875 20.25390625 C-4.8041063 28.91977996 -17.47990122 33.83360632 -26 37 C-42.25053252 41.58009589 -59.20303683 38.78301805 -74 31 C-74 30.34 -74 29.68 -74 29 C-74.70125 28.979375 -75.4025 28.95875 -76.125 28.9375 C-81.41199185 27.21348092 -84.06636731 22.52493339 -86.875 17.9375 C-88.151184 14.60524177 -88.52627871 12.53358565 -88 9 C-86.02500427 5.44500769 -84.71074058 4.25586661 -80.875 2.875 C-75.44902491 3.05003145 -71.62739832 5.30921908 -67 8 C-67 8.66 -67 9.32 -67 10 C-53.8647463 14.67525979 -40.6806149 18.53528581 -27 14 C-24.57052318 12.78757538 -22.31954045 11.4201268 -20 10 C-19.34 10 -18.68 10 -18 10 C-18 9.34 -18 8.68 -18 8 C-12.53178305 2.41972942 -7.95559686 -1.50882009 0 0 Z " fill="#2D2D2D" transform="translate(573,493)"/>
<path d="M0 0 C2.42606721 19.90926787 4.8409534 39.8198636 7.24317741 59.73202229 C7.78366585 64.21119919 8.32605557 68.69014148 8.86962891 73.16894531 C9.47947312 78.197861 10.08297257 83.22748993 10.68032837 88.25790405 C10.89109661 90.02463486 11.10407903 91.79110312 11.31942749 93.55728149 C12.39690522 102.40697809 13.2555262 111.06456813 13 120 C9.04 120 5.08 120 1 120 C-2.43808633 96.79788761 -5.49208675 73.5691932 -8.22241211 50.2734375 C-8.72200871 46.01125398 -9.2293603 41.75003132 -9.73869801 37.48900223 C-10.13714793 34.14872812 -10.5316977 30.8080023 -10.92505455 27.46712494 C-11.11084906 25.89301233 -11.29782317 24.31903843 -11.486063 22.74521637 C-11.74573889 20.56919642 -12.00013772 18.39262102 -12.25317383 16.21582031 C-12.39797684 14.98679993 -12.54277985 13.75777954 -12.69197083 12.49151611 C-13.00222164 8.97481762 -13.05401522 5.52838224 -13 2 C-8.45240084 0.76675277 -4.71865769 -0.05466946 0 0 Z " fill="#707070" transform="translate(161,428)"/>
<path d="M0 0 C3.60728467 16.18526926 5.78442277 32.50262217 7.80828857 48.94561768 C8.14459322 51.66342753 8.48819632 54.38029177 8.83194923 57.09716797 C9.9232995 65.72731537 10.97581795 74.36161096 12 83 C12.15281433 84.2876123 12.30562866 85.57522461 12.46307373 86.90185547 C12.90135009 90.64178208 13.32634645 94.3829527 13.74609375 98.125 C13.87403824 99.21965576 14.00198273 100.31431152 14.13380432 101.44213867 C16.52081851 123.30426541 16.52081851 123.30426541 13 129 C11.35 129 9.7 129 8 129 C2.06165358 116.11653319 1.26391255 101.20787635 -0.41015625 87.24609375 C-0.62480891 85.48879842 -0.83994272 83.73156181 -1.05552673 81.97438049 C-1.61649023 77.3925122 -2.17151363 72.8099452 -2.72503662 68.22717285 C-3.39580969 62.68216401 -4.07319566 57.13795997 -4.75010586 51.59369755 C-5.27725685 47.27562498 -5.80334578 42.95743452 -6.32569885 38.63877869 C-6.51789111 37.05401366 -6.71018497 35.46926095 -6.90258789 33.88452148 C-6.99414186 33.12831733 -7.08569582 32.37211317 -7.18002415 31.59299374 C-7.6229856 27.96469804 -8.08425787 24.34040427 -8.58615112 20.71975708 C-8.67969344 20.04222161 -8.77323576 19.36468615 -8.86961269 18.6666193 C-9.12324823 16.84802834 -9.38267067 15.03024705 -9.64256287 13.21253967 C-9.98771395 10.11042337 -10.06477061 7.11811589 -10 4 C-8.71086513 3.32845067 -7.41859796 2.66291141 -6.125 2 C-5.40570313 1.62875 -4.68640625 1.2575 -3.9453125 0.875 C-2 0 -2 0 0 0 Z " fill="#707070" transform="translate(189,685)"/>
</svg>
